<mxfile host="app.diagrams.net" modified="2022-01-21T12:25:45.523Z" agent="5.0 (Windows NT 10.0; Win64; x64) AppleWebKit/537.36 (KHTML, like Gecko) Chrome/97.0.4692.71 Safari/537.36" etag="OBSUBhLwL0p5BiQmcb6I" version="16.4.3" type="github">
  <diagram id="mBqlUh0IOHd4_IDjcAts" name="Page-1">
    <mxGraphModel dx="1422" dy="754" grid="1" gridSize="10" guides="1" tooltips="1" connect="1" arrows="1" fold="1" page="1" pageScale="1" pageWidth="827" pageHeight="1169" math="0" shadow="0">
      <root>
        <mxCell id="0" />
        <mxCell id="1" parent="0" />
        <mxCell id="Pcj03ghA1t9jqHRigUyF-5" value="" style="edgeStyle=orthogonalEdgeStyle;rounded=0;orthogonalLoop=1;jettySize=auto;html=1;exitX=0.111;exitY=0.009;exitDx=0;exitDy=0;exitPerimeter=0;entryX=0.197;entryY=0.993;entryDx=0;entryDy=0;entryPerimeter=0;" edge="1" parent="1" source="Pcj03ghA1t9jqHRigUyF-9" target="Pcj03ghA1t9jqHRigUyF-10">
          <mxGeometry relative="1" as="geometry">
            <mxPoint x="190" y="310" as="sourcePoint" />
            <mxPoint x="270" y="183" as="targetPoint" />
          </mxGeometry>
        </mxCell>
        <mxCell id="Pcj03ghA1t9jqHRigUyF-6" value="Property Search" style="text;html=1;align=center;verticalAlign=middle;resizable=0;points=[];autosize=1;strokeColor=none;fillColor=none;" vertex="1" parent="1">
          <mxGeometry x="170" y="140" width="100" height="20" as="geometry" />
        </mxCell>
        <mxCell id="Pcj03ghA1t9jqHRigUyF-9" value="&lt;span&gt;AtEase website&lt;/span&gt;" style="rounded=0;whiteSpace=wrap;html=1;direction=south;" vertex="1" parent="1">
          <mxGeometry x="50" y="120" width="110" height="550" as="geometry" />
        </mxCell>
        <mxCell id="Pcj03ghA1t9jqHRigUyF-12" style="edgeStyle=orthogonalEdgeStyle;rounded=0;orthogonalLoop=1;jettySize=auto;html=1;exitX=1;exitY=0.75;exitDx=0;exitDy=0;entryX=0.253;entryY=0;entryDx=0;entryDy=0;entryPerimeter=0;" edge="1" parent="1" source="Pcj03ghA1t9jqHRigUyF-10" target="Pcj03ghA1t9jqHRigUyF-11">
          <mxGeometry relative="1" as="geometry" />
        </mxCell>
        <mxCell id="Pcj03ghA1t9jqHRigUyF-10" value="&lt;span&gt;AteaseBookingService&lt;/span&gt;" style="rounded=0;whiteSpace=wrap;html=1;direction=south;" vertex="1" parent="1">
          <mxGeometry x="280" y="120" width="150" height="310" as="geometry" />
        </mxCell>
        <mxCell id="Pcj03ghA1t9jqHRigUyF-13" style="edgeStyle=orthogonalEdgeStyle;rounded=0;orthogonalLoop=1;jettySize=auto;html=1;exitX=0.855;exitY=0;exitDx=0;exitDy=4.35;exitPerimeter=0;" edge="1" parent="1" source="Pcj03ghA1t9jqHRigUyF-11">
          <mxGeometry relative="1" as="geometry">
            <mxPoint x="408" y="430" as="targetPoint" />
          </mxGeometry>
        </mxCell>
        <mxCell id="Pcj03ghA1t9jqHRigUyF-11" value="Atease DB" style="shape=cylinder3;whiteSpace=wrap;html=1;boundedLbl=1;backgroundOutline=1;size=15;" vertex="1" parent="1">
          <mxGeometry x="280" y="510" width="150" height="80" as="geometry" />
        </mxCell>
      </root>
    </mxGraphModel>
  </diagram>
</mxfile>
